<svg width="17225" height="20363" viewBox="0 0 17225 20363" fill="none" xmlns="http://www.w3.org/2000/svg">
<ellipse cx="8612.5" cy="15050.3" rx="8612.5" ry="5312.3" fill="#8C4D3F"/>
<rect x="3.026" y="8318" width="17222" height="6756.01" fill="#8C4D3F"/>
<path d="M14505 499H15543C16094.7 499 16542 946.268 16542 1498V6720H15005C14728.9 6720 14505 6496.14 14505 6220V499Z" fill="#8C4D3F"/>
<rect x="16462" y="1746" width="362" height="5394" fill="#8C4D3F"/>
<rect x="15969" y="5554" width="558" height="1586" fill="#8C4D3F"/>
<rect x="15516" y="6008" width="546" height="1132" fill="#8C4D3F"/>
<path d="M6605 963C6605 686.858 6828.86 463 7105 463H7702C7978.14 463 8202 686.858 8202 963V6263C8202 6539.14 7978.14 6763 7702 6763H7105C6828.86 6763 6605 6539.14 6605 6263V963Z" fill="#F2AC57"/>
<path d="M2335 926C2335 649.858 2558.86 426 2835 426H5130C5406.14 426 5630 649.858 5630 926V3222H2335V926Z" fill="#795548"/>
<rect x="3282" y="40" width="1359" height="821" fill="#795548"/>
<path d="M2298 3704H5593V6266C5593 6542.14 5369.14 6766 5093 6766H2798C2521.86 6766 2298 6542.14 2298 6266V3704Z" fill="#5D4037"/>
<rect x="3266" y="6445" width="1371" height="733" fill="#5D4037"/>
<path d="M3 690C3 551.929 114.929 440 253 440H886C1162.14 440 1386 663.858 1386 940V6263C1386 6539.14 1162.14 6763 886 6763H253C114.929 6763 3 6651.07 3 6513V690Z" fill="#8C4D3F"/>
<rect x="3" y="40" width="401" height="841" fill="#8C4D3F"/>
<rect x="3" y="6445" width="401" height="733" fill="#8C4D3F"/>
<rect x="11082" y="1784" width="514" height="3241" fill="#E8D0B3"/>
<path d="M9161 959C9161 682.858 9384.86 459 9661 459H11191V6680H9161V959Z" fill="#E8D0B3"/>
<rect x="10113" y="38" width="1081" height="421" fill="#E8D0B3"/>
<path d="M11487 1536C11487 984.268 11934.3 537 12486 537H13495V5025H11487V1536Z" fill="#E8D0B3"/>
<path d="M13495 6258C13495 6534.14 13271.1 6758 12995 6758H12572V5025H13495V6258Z" fill="#E8D0B3"/>
<path d="M12114 6180C12114 6456.14 11890.1 6680 11614 6680H10945V5025H12114V6180Z" fill="#E8D0B3"/>
<rect y="7469" width="17225" height="849" fill="#402525"/>
<path d="M1782 11725V11529H1906C1951.33 11529 1992.67 11523.7 2030 11513C2070 11499.7 2100.67 11474.3 2122 11437C2146 11397 2158 11338.3 2158 11261V9317C2158 9242.33 2146 9187.67 2122 9153C2098 9115.67 2067.33 9091.67 2030 9081C1992.67 9070.33 1951.33 9065 1906 9065H1782V8869H3078V9065H2954C2908.67 9065 2866 9071.67 2826 9085C2788.67 9095.67 2758 9119.67 2734 9157C2712.67 9194.33 2702 9253 2702 9333V10121H3842V9333C3842 9253 3830 9194.33 3806 9157C3784.67 9119.67 3755.33 9095.67 3718 9085C3680.67 9071.67 3638 9065 3590 9065H3466V8869H4762V9065H4638C4595.33 9065 4554 9071.67 4514 9085C4474 9095.67 4443.33 9119.67 4422 9157C4400.67 9194.33 4390 9253 4390 9333V11281C4390 11353 4400.67 11407.7 4422 11445C4446 11479.7 4476.67 11502.3 4514 11513C4554 11523.7 4595.33 11529 4638 11529H4762V11725H3466V11529H3590C3638 11529 3680.67 11523.7 3718 11513C3755.33 11499.7 3784.67 11474.3 3806 11437C3830 11397 3842 11338.3 3842 11261V10349H2702V11261C2702 11338.3 2712.67 11397 2734 11437C2758 11474.3 2788.67 11499.7 2826 11513C2866 11523.7 2908.67 11529 2954 11529H3078V11725H1782ZM6428.38 11765C6132.38 11765 5887.04 11703.7 5692.38 11581C5497.71 11458.3 5351.04 11286.3 5252.38 11065C5156.38 10843.7 5108.38 10585 5108.38 10289C5108.38 9993 5156.38 9735.67 5252.38 9517C5351.04 9298.33 5497.71 9129 5692.38 9009C5889.71 8886.33 6136.38 8825 6432.38 8825C6715.04 8825 6953.71 8886.33 7148.37 9009C7343.04 9129 7491.04 9299.67 7592.38 9521C7693.71 9739.67 7744.38 9997 7744.38 10293C7744.38 10589 7693.71 10847.7 7592.38 11069C7491.04 11287.7 7341.71 11458.3 7144.38 11581C6949.71 11703.7 6711.04 11765 6428.38 11765ZM6428.38 11521C6564.38 11521 6677.71 11494.3 6768.38 11441C6861.71 11385 6936.38 11305 6992.38 11201C7051.04 11094.3 7093.71 10965 7120.38 10813C7147.04 10661 7160.38 10487.7 7160.38 10293C7160.38 10101 7147.04 9929 7120.38 9777C7093.71 9625 7052.38 9497 6996.38 9393C6940.38 9286.33 6865.71 9206.33 6772.38 9153C6679.04 9097 6565.71 9069 6432.38 9069C6299.04 9069 6184.38 9097 6088.38 9153C5995.04 9206.33 5919.04 9286.33 5860.38 9393C5804.38 9497 5763.04 9625 5736.38 9777C5709.71 9929 5696.38 10101 5696.38 10293C5696.38 10487.7 5709.71 10661 5736.38 10813C5763.04 10965 5804.38 11094.3 5860.38 11201C5919.04 11305 5995.04 11385 6088.38 11441C6184.38 11494.3 6297.71 11521 6428.38 11521ZM8496.38 11725V11529H8636.38C8684.38 11529 8727.04 11523.7 8764.38 11513C8801.71 11499.7 8831.04 11474.3 8852.38 11437C8876.38 11399.7 8888.38 11342.3 8888.38 11265V9097H8544.38C8464.38 9097 8401.71 9110.33 8356.38 9137C8311.04 9161 8277.71 9195.67 8256.38 9241C8235.04 9286.33 8220.38 9338.33 8212.38 9397L8188.38 9617H7944.38L7964.38 8869H10364.4L10384.4 9617H10140.4L10112.4 9397C10107 9338.33 10092.4 9286.33 10068.4 9241C10047 9195.67 10013.7 9161 9968.38 9137C9923.04 9110.33 9860.38 9097 9780.38 9097H9436.38V11261C9436.38 11338.3 9447.04 11397 9468.38 11437C9489.71 11474.3 9520.38 11499.7 9560.38 11513C9600.38 11523.7 9643.04 11529 9688.38 11529H9828.38V11725H8496.38ZM10567.2 11725V11529H10691.2C10736.5 11529 10777.8 11523.7 10815.2 11513C10852.5 11502.3 10883.2 11479.7 10907.2 11445C10931.2 11407.7 10943.2 11353 10943.2 11281V9333C10943.2 9253 10931.2 9194.33 10907.2 9157C10885.8 9119.67 10856.5 9095.67 10819.2 9085C10781.8 9071.67 10739.2 9065 10691.2 9065H10567.2V8869H12707.2L12727.2 9593H12475.2L12455.2 9409C12449.8 9345 12435.2 9290.33 12411.2 9245C12389.8 9199.67 12359.2 9163.67 12319.2 9137C12279.2 9110.33 12227.2 9097 12163.2 9097H11491.2V10121H12443.2V10345H11491.2V11497H12279.2C12343.2 11497 12395.2 11483.7 12435.2 11457C12477.8 11427.7 12511.2 11390.3 12535.2 11345C12559.2 11297 12575.2 11243.7 12583.2 11185L12611.2 11001H12863.2L12835.2 11725H10567.2ZM13133.6 11725V11529H13257.6C13305.6 11529 13348.2 11523.7 13385.6 11513C13422.9 11499.7 13452.2 11474.3 13473.6 11437C13497.6 11397 13509.6 11338.3 13509.6 11261V9333C13509.6 9253 13497.6 9194.33 13473.6 9157C13452.2 9119.67 13422.9 9095.67 13385.6 9085C13348.2 9071.67 13305.6 9065 13257.6 9065H13133.6V8869H14429.6V9065H14305.6C14260.2 9065 14218.9 9070.33 14181.6 9081C14144.2 9091.67 14113.6 9115.67 14089.6 9153C14068.2 9187.67 14057.6 9242.33 14057.6 9317V11497H14817.6C14884.2 11497 14940.2 11482.3 14985.6 11453C15033.6 11423.7 15070.9 11382.3 15097.6 11329C15124.2 11273 15144.2 11211.7 15157.6 11145L15209.6 10845H15429.6L15401.6 11725H13133.6Z" fill="#D7CCC8"/>
<path d="M1799 15618.9V15358.5H1860.93C1884.91 15358.5 1906.22 15351.5 1924.86 15337.3C1943.51 15319.6 1958.16 15285.9 1968.81 15236.3C1980.8 15183.2 1986.79 15105.3 1986.79 15002.6V12441.7C1986.79 12335.5 1980.8 12257.6 1968.81 12208C1958.16 12158.4 1943.51 12126.5 1924.86 12112.3C1906.22 12094.6 1884.91 12085.8 1860.93 12085.8H1799V11825.4H2446.29V12085.8H2384.36C2361.71 12085.8 2341.07 12092.9 2322.42 12107C2303.78 12121.2 2288.46 12153.1 2276.47 12202.7C2265.82 12248.7 2260.49 12321.3 2260.49 12420.5V15316H2640.07C2673.37 15316 2701.34 15296.6 2723.98 15257.6C2747.95 15218.6 2766.6 15163.7 2779.92 15092.9C2793.24 15018.5 2803.23 14937 2809.89 14848.5L2835.86 14450H2945.74L2931.75 15618.9H1799Z" fill="#D7CCC8"/>
<path d="M3786.01 15672C3638.18 15672 3515.64 15590.5 3418.42 15427.6C3321.19 15264.7 3247.94 15036.2 3198.66 14742.2C3150.71 14448.3 3126.74 14104.7 3126.74 13711.5C3126.74 13318.4 3150.71 12976.6 3198.66 12686.1C3247.94 12395.7 3321.19 12170.8 3418.42 12011.4C3516.98 11848.5 3640.17 11767 3788.01 11767C3929.19 11767 4048.39 11848.5 4145.62 12011.4C4242.84 12170.8 4316.76 12397.5 4367.37 12691.4C4417.98 12981.9 4443.29 13323.7 4443.29 13716.8C4443.29 14110 4417.98 14453.6 4367.37 14747.6C4316.76 15038 4242.18 15264.7 4143.62 15427.6C4046.39 15590.5 3927.19 15672 3786.01 15672ZM3786.01 15347.9C3853.94 15347.9 3910.54 15312.5 3955.83 15241.7C4002.44 15167.3 4039.73 15061 4067.7 14922.9C4097 14781.2 4118.31 14609.4 4131.63 14407.5C4144.95 14205.6 4151.61 13975.4 4151.61 13716.8C4151.61 13461.8 4144.95 13233.4 4131.63 13031.5C4118.31 12829.6 4097.67 12659.6 4069.7 12521.4C4041.73 12379.8 4004.44 12273.5 3957.82 12202.7C3911.21 12128.3 3854.6 12091.1 3788.01 12091.1C3721.42 12091.1 3664.15 12128.3 3616.2 12202.7C3569.59 12273.5 3531.63 12379.8 3502.33 12521.4C3474.36 12659.6 3453.71 12829.6 3440.39 13031.5C3427.08 13233.4 3420.42 13461.8 3420.42 13716.8C3420.42 13975.4 3427.08 14205.6 3440.39 14407.5C3453.71 14609.4 3474.36 14781.2 3502.33 14922.9C3531.63 15061 3569.59 15167.3 3616.2 15241.7C3664.15 15312.5 3720.75 15347.9 3786.01 15347.9Z" fill="#D7CCC8"/>
<path d="M5069.66 15672C4988.42 15672 4919.83 15652.5 4863.89 15613.6C4807.95 15571.1 4762.67 15514.4 4728.04 15443.5C4693.41 15372.7 4668.1 15293 4652.12 15204.5C4636.14 15112.4 4628.15 15020.3 4628.15 14928.2C4628.15 14825.5 4636.81 14742.2 4654.12 14678.5C4671.43 14611.2 4694.74 14561.6 4724.04 14529.7C4754.68 14497.8 4787.31 14481.9 4821.93 14481.9C4823.27 14662.5 4834.59 14820.2 4855.9 14954.8C4877.21 15089.3 4907.84 15193.8 4947.8 15268.2C4989.08 15339.1 5038.36 15374.5 5095.63 15374.5C5178.21 15374.5 5242.14 15319.6 5287.42 15209.8C5334.04 15096.4 5357.34 14947.7 5357.34 14763.5C5357.34 14639.5 5346.02 14533.3 5323.38 14444.7C5300.74 14356.2 5265.45 14274.7 5217.5 14200.3C5169.55 14125.9 5107.62 14048 5031.7 13966.6C4966.44 13895.7 4909.84 13819.6 4861.89 13738.1C4813.94 13656.6 4775.32 13569.9 4746.02 13477.8C4716.72 13385.7 4694.74 13284.7 4680.09 13174.9C4666.77 13061.6 4660.11 12935.8 4660.11 12797.7C4660.11 12588.7 4680.76 12408.1 4722.04 12255.8C4763.33 12099.9 4819.27 11981.3 4889.86 11899.8C4960.45 11814.8 5041.03 11772.3 5131.59 11772.3C5222.16 11772.3 5297.41 11800.6 5357.34 11857.3C5417.28 11910.4 5461.9 11983.1 5491.2 12075.1C5521.83 12167.2 5537.15 12268.2 5537.15 12378C5537.15 12498.4 5519.17 12597.6 5483.21 12675.5C5447.25 12749.9 5393.97 12787.1 5323.38 12787.1C5323.38 12684.4 5316.06 12578.1 5301.41 12468.3C5288.09 12358.5 5265.45 12266.4 5233.48 12192C5202.85 12114.1 5160.89 12075.1 5107.62 12075.1C5066.33 12075.1 5029.04 12096.4 4995.74 12138.9C4963.78 12177.9 4938.47 12238.1 4919.83 12319.5C4901.18 12397.5 4891.86 12493.1 4891.86 12606.4C4891.86 12723.3 4901.18 12826 4919.83 12914.6C4938.47 13003.1 4971.1 13088.1 5017.72 13169.6C5064.33 13251.1 5130.26 13337.9 5215.5 13429.9C5302.07 13522 5372.66 13621.2 5427.27 13727.5C5483.21 13830.2 5524.49 13948.8 5551.13 14083.4C5579.1 14214.5 5593.08 14368.6 5593.08 14545.7C5593.08 14772.3 5571.11 14970.7 5527.16 15140.7C5484.54 15307.2 5423.94 15438.2 5345.36 15533.9C5268.11 15626 5176.21 15672 5069.66 15672Z" fill="#D7CCC8"/>
<path d="M6516.22 15618.9V15358.5H6586.15C6610.12 15358.5 6631.43 15351.5 6650.08 15337.3C6668.72 15319.6 6683.37 15285.9 6694.03 15236.3C6706.01 15186.8 6712.01 15110.6 6712.01 15007.9V12128.3H6540.2C6500.24 12128.3 6468.94 12146 6446.3 12181.4C6423.66 12213.3 6407.01 12259.3 6396.36 12319.5C6385.7 12379.8 6378.38 12448.8 6374.38 12526.7L6362.39 12819H6240.53L6250.52 11825.4H7449.2L7459.18 12819H7337.32L7323.33 12526.7C7320.67 12448.8 7313.35 12379.8 7301.36 12319.5C7290.7 12259.3 7274.06 12213.3 7251.41 12181.4C7228.77 12146 7197.47 12128.3 7157.52 12128.3H6985.71V15002.6C6985.71 15105.3 6991.03 15183.2 7001.69 15236.3C7012.34 15285.9 7027.66 15319.6 7047.64 15337.3C7067.62 15351.5 7088.93 15358.5 7111.57 15358.5H7181.49V15618.9H6516.22Z" fill="#D7CCC8"/>
<path d="M8216.68 15672C8068.84 15672 7946.31 15590.5 7849.08 15427.6C7751.86 15264.7 7678.6 15036.2 7629.33 14742.2C7581.38 14448.3 7557.4 14104.7 7557.4 13711.5C7557.4 13318.4 7581.38 12976.6 7629.33 12686.1C7678.6 12395.7 7751.86 12170.8 7849.08 12011.4C7947.64 11848.5 8070.84 11767 8218.68 11767C8359.85 11767 8479.06 11848.5 8576.28 12011.4C8673.51 12170.8 8747.43 12397.5 8798.04 12691.4C8848.65 12981.9 8873.95 13323.7 8873.95 13716.8C8873.95 14110 8848.65 14453.6 8798.04 14747.6C8747.43 15038 8672.84 15264.7 8574.28 15427.6C8477.06 15590.5 8357.86 15672 8216.68 15672ZM8216.68 15347.9C8284.6 15347.9 8341.21 15312.5 8386.49 15241.7C8433.11 15167.3 8470.4 15061 8498.37 14922.9C8527.67 14781.2 8548.98 14609.4 8562.3 14407.5C8575.62 14205.6 8582.28 13975.4 8582.28 13716.8C8582.28 13461.8 8575.62 13233.4 8562.3 13031.5C8548.98 12829.6 8528.33 12659.6 8500.37 12521.4C8472.4 12379.8 8435.1 12273.5 8388.49 12202.7C8341.87 12128.3 8285.27 12091.1 8218.68 12091.1C8152.08 12091.1 8094.81 12128.3 8046.87 12202.7C8000.25 12273.5 7962.29 12379.8 7932.99 12521.4C7905.02 12659.6 7884.38 12829.6 7871.06 13031.5C7857.74 13233.4 7851.08 13461.8 7851.08 13716.8C7851.08 13975.4 7857.74 14205.6 7871.06 14407.5C7884.38 14609.4 7905.02 14781.2 7932.99 14922.9C7962.29 15061 8000.25 15167.3 8046.87 15241.7C8094.81 15312.5 8151.42 15347.9 8216.68 15347.9Z" fill="#D7CCC8"/>
<path d="M9048.82 15618.9V15358.5H9110.76C9133.4 15358.5 9154.04 15351.5 9172.69 15337.3C9192.67 15319.6 9207.98 15285.9 9218.64 15236.3C9230.62 15183.2 9236.62 15105.3 9236.62 15002.6V12420.5C9236.62 12321.3 9230.62 12248.7 9218.64 12202.7C9206.65 12153.1 9191.33 12121.2 9172.69 12107C9154.04 12092.9 9133.4 12085.8 9110.76 12085.8H9048.82V11825.4H9462.37L10171.6 14582.9V12420.5C10171.6 12321.3 10165.6 12248.7 10153.6 12202.7C10141.6 12153.1 10126.3 12121.2 10107.7 12107C10089 12092.9 10068.4 12085.8 10045.7 12085.8H9983.79V11825.4H10497.2V12085.8H10435.3C10414 12085.8 10393.3 12094.6 10373.4 12112.3C10353.4 12126.5 10338.1 12158.4 10327.4 12208C10316.8 12257.6 10311.4 12335.5 10311.4 12441.7V15618.9H10143.6L9374.46 12643.6V15002.6C9374.46 15105.3 9379.79 15183.2 9390.45 15236.3C9402.43 15285.9 9417.75 15319.6 9436.4 15337.3C9456.37 15351.5 9477.68 15358.5 9500.33 15358.5H9562.26V15618.9H9048.82Z" fill="#D7CCC8"/>
<path d="M10605.7 15618.9V15358.5H10667.6C10690.3 15358.5 10710.9 15351.5 10729.6 15337.3C10748.2 15323.1 10763.5 15293 10775.5 15247C10787.5 15197.4 10793.5 15124.8 10793.5 15029.1V12441.7C10793.5 12335.5 10787.5 12257.6 10775.5 12208C10764.9 12158.4 10750.2 12126.5 10731.6 12112.3C10712.9 12094.6 10691.6 12085.8 10667.6 12085.8H10605.7V11825.4H11674.5L11684.5 12787.1H11558.7L11548.7 12542.7C11546 12457.7 11538.7 12385.1 11526.7 12324.9C11516 12264.6 11500.7 12216.8 11480.7 12181.4C11460.8 12146 11434.8 12128.3 11402.8 12128.3H11067.2V13488.4H11542.7V13785.9H11067.2V15316H11460.8C11492.7 15316 11518.7 15298.3 11538.7 15262.9C11560 15223.9 11576.6 15174.4 11588.6 15114.1C11600.6 15050.4 11608.6 14979.5 11612.6 14901.6L11626.6 14657.2H11752.4L11738.5 15618.9H10605.7Z" fill="#D7CCC8"/>
<path d="M11887.5 15618.9V15358.5H11949.4C11973.4 15358.5 11994.7 15351.5 12013.4 15337.3C12032 15319.6 12046.7 15285.9 12057.3 15236.3C12069.3 15183.2 12075.3 15105.3 12075.3 15002.6V12441.7C12075.3 12335.5 12069.3 12257.6 12057.3 12208C12046.7 12158.4 12032 12126.5 12013.4 12112.3C11994.7 12094.6 11973.4 12085.8 11949.4 12085.8H11887.5V11825.4H12534.8V12085.8H12472.8C12450.2 12085.8 12429.6 12092.9 12410.9 12107C12392.3 12121.2 12377 12153.1 12365 12202.7C12354.3 12248.7 12349 12321.3 12349 12420.5V15316H12728.6C12761.9 15316 12789.8 15296.6 12812.5 15257.6C12836.4 15218.6 12855.1 15163.7 12868.4 15092.9C12881.7 15018.5 12891.7 14937 12898.4 14848.5L12924.3 14450H13034.2L13020.2 15618.9H11887.5Z" fill="#D7CCC8"/>
<path d="M13169.3 15618.9V15358.5H13231.2C13253.9 15358.5 13274.5 15351.5 13293.1 15337.3C13311.8 15323.1 13327.1 15293 13339.1 15247C13351.1 15197.4 13357.1 15124.8 13357.1 15029.1V12441.7C13357.1 12335.5 13351.1 12257.6 13339.1 12208C13328.4 12158.4 13313.8 12126.5 13295.1 12112.3C13276.5 12094.6 13255.2 12085.8 13231.2 12085.8H13169.3V11825.4H14238.1L14248.1 12787.1H14122.2L14112.2 12542.7C14109.6 12457.7 14102.3 12385.1 14090.3 12324.9C14079.6 12264.6 14064.3 12216.8 14044.3 12181.4C14024.3 12146 13998.4 12128.3 13966.4 12128.3H13630.8V13488.4H14106.3V13785.9H13630.8V15316H14024.3C14056.3 15316 14082.3 15298.3 14102.3 15262.9C14123.6 15223.9 14140.2 15174.4 14152.2 15114.1C14164.2 15050.4 14172.2 14979.5 14176.2 14901.6L14190.2 14657.2H14316L14302 15618.9H13169.3Z" fill="#D7CCC8"/>
<path d="M14902.6 15672C14821.3 15672 14752.7 15652.5 14696.8 15613.6C14640.9 15571.1 14595.6 15514.4 14561 15443.5C14526.3 15372.7 14501 15293 14485 15204.5C14469.1 15112.4 14461.1 15020.3 14461.1 14928.2C14461.1 14825.5 14469.7 14742.2 14487 14678.5C14504.3 14611.2 14527.7 14561.6 14557 14529.7C14587.6 14497.8 14620.2 14481.9 14654.8 14481.9C14656.2 14662.5 14667.5 14820.2 14688.8 14954.8C14710.1 15089.3 14740.8 15193.8 14780.7 15268.2C14822 15339.1 14871.3 15374.5 14928.5 15374.5C15011.1 15374.5 15075.1 15319.6 15120.3 15209.8C15167 15096.4 15190.3 14947.7 15190.3 14763.5C15190.3 14639.5 15178.9 14533.3 15156.3 14444.7C15133.7 14356.2 15098.4 14274.7 15050.4 14200.3C15002.5 14125.9 14940.5 14048 14864.6 13966.6C14799.4 13895.7 14742.8 13819.6 14694.8 13738.1C14646.9 13656.6 14608.2 13569.9 14578.9 13477.8C14549.6 13385.7 14527.7 13284.7 14513 13174.9C14499.7 13061.6 14493 12935.8 14493 12797.7C14493 12588.7 14513.7 12408.1 14555 12255.8C14596.2 12099.9 14652.2 11981.3 14722.8 11899.8C14793.4 11814.8 14873.9 11772.3 14964.5 11772.3C15055.1 11772.3 15130.3 11800.6 15190.3 11857.3C15250.2 11910.4 15294.8 11983.1 15324.1 12075.1C15354.7 12167.2 15370.1 12268.2 15370.1 12378C15370.1 12498.4 15352.1 12597.6 15316.1 12675.5C15280.2 12749.9 15226.9 12787.1 15156.3 12787.1C15156.3 12684.4 15149 12578.1 15134.3 12468.3C15121 12358.5 15098.4 12266.4 15066.4 12192C15035.8 12114.1 14993.8 12075.1 14940.5 12075.1C14899.2 12075.1 14862 12096.4 14828.7 12138.9C14796.7 12177.9 14771.4 12238.1 14752.7 12319.5C14734.1 12397.5 14724.8 12493.1 14724.8 12606.4C14724.8 12723.3 14734.1 12826 14752.7 12914.6C14771.4 13003.1 14804 13088.1 14850.6 13169.6C14897.2 13251.1 14963.2 13337.9 15048.4 13429.9C15135 13522 15205.6 13621.2 15260.2 13727.5C15316.1 13830.2 15357.4 13948.8 15384 14083.4C15412 14214.5 15426 14368.6 15426 14545.7C15426 14772.3 15404 14970.7 15360.1 15140.7C15317.5 15307.2 15256.9 15438.2 15178.3 15533.9C15101 15626 15009.1 15672 14902.6 15672Z" fill="#D7CCC8"/>
<path d="M2854.7 17853.8L2856.16 17811.3C2866.91 17519.3 2940.64 17243.4 3077.36 16983.6C3203.33 16746.3 3362.02 16554.4 3553.43 16408C3742.88 16263.4 3927.45 16191.2 4107.14 16191.2C4243.86 16191.2 4351.77 16238.5 4430.87 16333.3C4498.25 16415.3 4531.95 16515.9 4531.95 16635C4531.95 16777.6 4479.7 16918.2 4375.21 17056.9C4314.66 17137 4250.21 17194.6 4181.85 17229.7C4149.62 17247.3 4119.35 17256.1 4091.03 17256.1C4063.68 17256.1 4038.29 17250.2 4014.86 17238.5C3991.42 17226.8 3970.91 17212.2 3953.33 17194.6C3917.2 17156.5 3899.13 17122.3 3899.13 17092C3899.13 17061.8 3906.95 17040.8 3922.57 17029.1C4082.73 16913.8 4191.61 16795.2 4249.23 16673.1C4271.69 16626.2 4282.92 16580.3 4282.92 16535.4C4282.92 16440.7 4238 16393.3 4148.16 16393.3C4007.53 16393.3 3862.51 16470 3713.1 16623.3C3573.45 16764.9 3456.26 16942.6 3361.54 17156.5C3262.9 17376.2 3210.66 17577.9 3204.8 17761.5L3203.33 17817.1C3203.33 18036.9 3249.72 18180.9 3342.49 18249.3C3375.7 18273.7 3415.25 18285.9 3461.14 18285.9C3508.02 18285.9 3551.96 18280 3592.98 18268.3C3634 18256.6 3675.01 18240.5 3716.03 18220C3782.43 18185.8 3867.39 18126.7 3970.91 18042.7C4002.16 18018.3 4028.04 18021.7 4048.55 18053C4066.12 18078.4 4074.91 18107.7 4074.91 18140.9C4074.91 18196.5 4067.1 18234.6 4051.48 18255.1C4036.83 18274.7 4010.95 18298.1 3973.84 18325.4C3937.71 18352.8 3893.27 18378.2 3840.54 18401.6C3717.49 18456.3 3596.89 18483.6 3478.72 18483.6C3360.56 18483.6 3265.34 18469.5 3193.08 18441.2C3120.81 18411.9 3059.78 18370.4 3009.97 18316.7C2906.46 18203.4 2854.7 18049.1 2854.7 17853.8ZM5550.01 18079.4C5550.01 18169.2 5581.75 18214.1 5645.23 18214.1C5689.17 18214.1 5725.3 18207.3 5753.62 18193.6C5782.92 18179.9 5802.45 18173.1 5812.22 18173.1C5832.73 18173.1 5842.98 18183.8 5842.98 18205.3C5842.98 18289.3 5799.04 18361.6 5711.14 18422.1C5618.37 18485.6 5523.64 18501.2 5426.96 18469C5363.49 18446.5 5316.61 18398.2 5286.34 18324C5271.69 18285.9 5264.37 18251.2 5264.37 18220C5264.37 18169.2 5269.25 18115.5 5279.02 18058.8C5188.2 18244.4 5075.4 18372.3 4940.64 18442.6C4886.93 18470 4829.8 18483.6 4769.25 18483.6C4708.7 18483.6 4655.97 18471.4 4611.05 18447C4567.1 18421.6 4529.5 18387 4498.25 18343C4434.78 18251.2 4405.97 18136 4411.83 17997.3C4417.69 17823.5 4468.96 17653.1 4565.64 17486.1C4654.5 17329.8 4766.81 17202.4 4902.55 17103.8C5038.29 17003.2 5165.25 16952.9 5283.41 16952.9C5401.57 16952.9 5496.79 17007.1 5569.05 17115.5C5636.44 17007.1 5696.01 16952.9 5747.77 16952.9C5803.43 16952.9 5845.42 16963.1 5873.74 16983.6C5927.45 17022.7 5946.5 17056.9 5930.87 17086.2C5685.75 17588.1 5559.78 17900.6 5552.94 18023.7C5550.99 18041.3 5550.01 18059.8 5550.01 18079.4ZM4737.02 18085.2C4737.02 18202.4 4774.62 18261 4849.82 18261C4907.43 18261 4978.23 18212.2 5062.22 18114.5C5185.27 17971 5294.15 17777.6 5388.88 17534.4C5419.15 17458.3 5444.54 17382.1 5465.05 17305.9C5461.14 17239.5 5433.31 17190.7 5381.55 17159.4C5363.98 17148.7 5337.61 17143.3 5302.45 17143.3C5268.27 17143.3 5227.75 17156 5180.87 17181.4C5134.97 17206.8 5090.05 17241.5 5046.11 17285.4C5003.14 17329.4 4962.61 17381.6 4924.52 17442.1C4887.41 17501.7 4854.7 17566.7 4826.38 17637C4766.81 17787.4 4737.02 17936.8 4737.02 18085.2ZM5879.6 18791.3C5879.6 18770.8 5895.23 18729.7 5926.48 18668.2C5956.75 18607.7 5989.95 18530 6026.09 18435.3C6063.2 18340.6 6098.35 18241.9 6131.55 18139.4C6164.76 18036.9 6198.45 17927 6232.63 17809.8L6346.89 17423.1L6194.54 17464.1C6156.46 17464.1 6125.21 17444.1 6100.79 17404.1C6094.93 17393.3 6092 17380.6 6092 17366C6092 17351.3 6103.72 17334.2 6127.16 17314.7C6150.6 17294.2 6179.41 17275.2 6213.59 17257.6C6281.95 17222.4 6352.26 17195.6 6424.52 17177L6437.71 17136C6464.07 17054 6488.98 16969 6512.41 16881.1C6536.83 16792.2 6562.22 16705.8 6588.59 16621.8C6615.93 16537.8 6646.69 16458.3 6680.87 16383.1C6715.05 16306.9 6755.09 16240.5 6800.99 16183.8C6902.55 16060.8 7029.99 15999.3 7183.31 15999.3C7296.59 15999.3 7386.44 16029.5 7452.84 16090.1C7519.25 16150.6 7552.45 16232.7 7552.45 16336.2C7552.45 16443.6 7521.69 16536.9 7460.17 16616C7408.41 16681.4 7350.79 16714.1 7287.32 16714.1C7208.21 16714.1 7154.5 16678 7126.18 16605.7C7118.37 16587.2 7114.46 16571.5 7114.46 16558.8C7114.46 16537.4 7129.11 16517.8 7158.41 16500.2C7212.12 16459.2 7249.72 16404.5 7271.2 16336.2C7278.04 16314.7 7281.46 16293.7 7281.46 16273.2C7281.46 16193.1 7250.21 16153.1 7187.71 16153.1C7101.77 16153.1 7022.67 16250.2 6950.4 16444.6C6928.92 16504.2 6907.43 16569.6 6885.95 16640.9L6748.25 17108.2C6837.12 17094.5 6901.57 17087.7 6941.61 17087.7C6982.63 17087.7 7018.76 17092.5 7050.01 17102.3C7081.26 17111.1 7109.58 17123.8 7134.97 17140.4C7192.59 17178.5 7221.4 17225.3 7221.4 17281C7221.4 17336.7 7194.05 17364.5 7139.37 17364.5L6953.33 17357.2C6851.77 17357.2 6758.02 17361.6 6672.08 17370.4L6551.96 17795.2C6472.86 18083.3 6408.41 18292.7 6358.61 18423.6C6309.78 18554.4 6261.93 18665.3 6215.05 18756.1C6171.11 18839.1 6104.21 18880.6 6014.37 18880.6C5924.52 18880.6 5879.6 18850.8 5879.6 18791.3ZM8356.65 18079.4C8356.65 18169.2 8388.39 18214.1 8451.87 18214.1C8495.81 18214.1 8531.95 18207.3 8560.27 18193.6C8589.56 18179.9 8609.09 18173.1 8618.86 18173.1C8639.37 18173.1 8649.62 18183.8 8649.62 18205.3C8649.62 18289.3 8605.68 18361.6 8517.79 18422.1C8425.01 18485.6 8330.29 18501.2 8233.61 18469C8170.13 18446.5 8123.25 18398.2 8092.98 18324C8078.33 18285.9 8071.01 18251.2 8071.01 18220C8071.01 18169.2 8075.89 18115.5 8085.66 18058.8C7994.84 18244.4 7882.04 18372.3 7747.28 18442.6C7693.57 18470 7636.44 18483.6 7575.89 18483.6C7515.34 18483.6 7462.61 18471.4 7417.69 18447C7373.74 18421.6 7336.14 18387 7304.89 18343C7241.42 18251.2 7212.61 18136 7218.47 17997.3C7224.33 17823.5 7275.6 17653.1 7372.28 17486.1C7461.14 17329.8 7573.45 17202.4 7709.19 17103.8C7844.93 17003.2 7971.89 16952.9 8090.05 16952.9C8208.21 16952.9 8303.43 17007.1 8375.7 17115.5C8443.08 17007.1 8502.65 16952.9 8554.41 16952.9C8610.07 16952.9 8652.06 16963.1 8680.38 16983.6C8734.09 17022.7 8753.14 17056.9 8737.51 17086.2C8492.39 17588.1 8366.42 17900.6 8359.58 18023.7C8357.63 18041.3 8356.65 18059.8 8356.65 18079.4ZM7543.66 18085.2C7543.66 18202.4 7581.26 18261 7656.46 18261C7714.07 18261 7784.88 18212.2 7868.86 18114.5C7991.91 17971 8100.79 17777.6 8195.52 17534.4C8225.79 17458.3 8251.18 17382.1 8271.69 17305.9C8267.79 17239.5 8239.95 17190.7 8188.2 17159.4C8170.62 17148.7 8144.25 17143.3 8109.09 17143.3C8074.91 17143.3 8034.39 17156 7987.51 17181.4C7941.61 17206.8 7896.69 17241.5 7852.75 17285.4C7809.78 17329.4 7769.25 17381.6 7731.16 17442.1C7694.05 17501.7 7661.34 17566.7 7633.02 17637C7573.45 17787.4 7543.66 17936.8 7543.66 18085.2ZM8848.84 18326.9C8837.12 18294.7 8831.26 18258.1 8831.26 18217C8831.26 18175.1 8838.1 18128.7 8851.77 18077.9C8866.42 18026.1 8884.97 17972.4 8907.43 17916.8C8929.89 17861.1 8954.31 17804 8980.68 17745.4L9059.78 17569.6C9161.34 17344 9198.94 17210.2 9172.57 17168.2C9160.85 17149.7 9138.88 17131.1 9106.65 17112.6C9094.93 17105.7 9089.07 17094 9089.07 17077.4C9089.07 17059.8 9095.91 17043.2 9109.58 17027.6C9124.23 17012 9142.79 16998.3 9165.25 16986.6C9213.1 16964.1 9260.95 16952.9 9308.8 16952.9C9356.65 16952.9 9392.79 16958.3 9417.2 16969C9442.59 16978.8 9463.1 16991.5 9478.72 17007.1C9510.95 17039.3 9527.06 17075 9527.06 17114C9527.06 17153.1 9520.71 17197 9508.02 17245.9C9495.32 17293.7 9478.72 17346 9458.21 17402.6C9437.71 17459.2 9415.25 17517.8 9390.83 17578.4C9323.45 17736.6 9278.04 17841.1 9254.6 17891.9L9200.4 18004.6C9170.13 18072 9154.99 18119.4 9154.99 18146.7C9154.99 18174.1 9159.39 18193.6 9168.18 18205.3C9176.96 18216.1 9192.59 18221.4 9215.05 18221.4C9238.49 18221.4 9263.88 18212.7 9291.22 18195.1C9319.54 18177.5 9349.82 18154.1 9382.04 18124.8C9414.27 18095.5 9447.47 18061.8 9481.65 18023.7C9516.81 17984.6 9550.99 17944.1 9584.19 17902.1C9671.11 17794.7 9735.56 17702.4 9777.55 17625.2C9988.49 17236.6 10100.3 17033.5 10113 17015.9C10145.2 16973.9 10177.5 16952.9 10209.7 16952.9C10242.9 16952.9 10271.7 16956.8 10296.1 16964.6C10320.5 16971.4 10341.5 16981.7 10359.1 16995.4C10398.2 17023.7 10409.9 17055.4 10394.2 17090.6C10379.6 17125.7 10361.5 17174.1 10340.1 17235.6C10154.5 17773.7 10033.9 18109.1 9978.23 18241.9C9923.55 18374.8 9875.7 18481.2 9834.68 18561.3C9793.66 18642.3 9745.32 18723.9 9689.66 18805.9C9634.97 18887.9 9576.38 18962.7 9513.88 19030C9371.3 19182.4 9237.51 19263.9 9112.51 19274.7C9064.66 19278.6 9026.57 19271.7 8998.25 19254.2C8949.43 19224.9 8925.01 19197 8925.01 19170.7C8925.01 19144.3 8946.98 19125.7 8990.93 19115C9035.85 19105.2 9081.75 19084.7 9128.62 19053.5C9176.48 19023.2 9222.38 18987.6 9266.32 18946.5C9395.23 18823.5 9495.32 18689.7 9566.61 18545.2C9627.16 18418.2 9675.99 18298.1 9713.1 18184.8L9827.36 17836.2C9799.04 17870.4 9767.79 17910.4 9733.61 17956.3L9628.14 18096.9C9536.34 18213.1 9460.17 18295.7 9399.62 18344.5C9284.39 18437.3 9181.36 18483.6 9090.54 18483.6C8969.45 18483.6 8888.88 18431.4 8848.84 18326.9ZM11632 18079.4C11632 18169.2 11663.8 18214.1 11727.3 18214.1C11771.2 18214.1 11807.3 18207.3 11835.7 18193.6C11865 18179.9 11884.5 18173.1 11894.2 18173.1C11914.8 18173.1 11925 18183.8 11925 18205.3C11925 18289.3 11881.1 18361.6 11793.2 18422.1C11700.4 18485.6 11605.7 18501.2 11509 18469C11445.5 18446.5 11398.6 18398.2 11368.4 18324C11353.7 18285.9 11346.4 18251.2 11346.4 18220C11346.4 18169.2 11351.3 18115.5 11361 18058.8C11270.2 18244.4 11157.4 18372.3 11022.7 18442.6C10969 18470 10911.8 18483.6 10851.3 18483.6C10790.7 18483.6 10738 18471.4 10693.1 18447C10649.1 18421.6 10611.5 18387 10580.3 18343C10516.8 18251.2 10488 18136 10493.9 17997.3C10499.7 17823.5 10551 17653.1 10647.7 17486.1C10736.5 17329.8 10848.8 17202.4 10984.6 17103.8C11120.3 17003.2 11247.3 16952.9 11365.4 16952.9C11483.6 16952.9 11578.8 17007.1 11651.1 17115.5C11718.5 17007.1 11778 16952.9 11829.8 16952.9C11885.5 16952.9 11927.5 16963.1 11955.8 16983.6C12009.5 17022.7 12028.5 17056.9 12012.9 17086.2C11767.8 17588.1 11641.8 17900.6 11635 18023.7C11633 18041.3 11632 18059.8 11632 18079.4ZM10819.1 18085.2C10819.1 18202.4 10856.7 18261 10931.8 18261C10989.5 18261 11060.3 18212.2 11144.2 18114.5C11267.3 17971 11376.2 17777.6 11470.9 17534.4C11501.2 17458.3 11526.6 17382.1 11547.1 17305.9C11543.2 17239.5 11515.3 17190.7 11463.6 17159.4C11446 17148.7 11419.6 17143.3 11384.5 17143.3C11350.3 17143.3 11309.8 17156 11262.9 17181.4C11217 17206.8 11172.1 17241.5 11128.1 17285.4C11085.2 17329.4 11044.6 17381.6 11006.6 17442.1C10969.4 17501.7 10936.7 17566.7 10908.4 17637C10848.8 17787.4 10819.1 17936.8 10819.1 18085.2ZM12979.7 18085.2C13008 18085.2 13022.2 18104.3 13022.2 18142.3C13022.2 18174.6 13012.4 18205.8 12992.9 18236.1C12966.5 18292.7 12913.8 18346.4 12834.7 18397.2C12744.8 18454.8 12654.5 18483.6 12563.7 18483.6C12406.5 18483.6 12306.8 18413.3 12264.9 18272.7C12215.1 18105.7 12289.8 17751.7 12489 17210.7C12376.7 17200.9 12315.6 17181.4 12305.9 17152.1C12302.9 17143.3 12301.5 17134 12301.5 17124.3C12301.5 17113.5 12305.9 17101.3 12314.7 17087.7C12324.4 17074 12336.6 17060.8 12351.3 17048.1C12385.5 17019.8 12420.1 17005.6 12455.3 17005.6H12571C12676.5 16758.6 12751.7 16617.9 12796.6 16583.7C12818.1 16568.1 12842 16560.3 12868.4 16560.3C12894.7 16560.3 12916.7 16563.7 12934.3 16570.6C12951.9 16577.4 12967.5 16587.2 12981.2 16599.9C13012.4 16629.2 13028 16661.9 13028 16698C13028 16717.5 13022.2 16740 13010.5 16765.4L12902.1 17001.2H12937.2C12997.8 17001.2 13046.6 17000.7 13083.7 16999.8C13083.7 16999.8 13111.5 16999.3 13167.2 16998.3C13185.8 16997.3 13208.7 16996.8 13236 16996.8C13264.4 16996.8 13278.5 17007.1 13278.5 17027.6C13278.5 17156.5 13126.2 17221 12821.5 17221H12809.8L12710.2 17478.8C12597.9 17783.5 12541.7 17996.8 12541.7 18118.9C12541.7 18153.1 12549.5 18179.9 12565.1 18199.5C12580.8 18218 12610.1 18227.3 12653 18227.3C12696 18227.3 12735.1 18220 12770.2 18205.3C12805.4 18190.7 12836.1 18174.6 12862.5 18157C12888.9 18138.4 12911.3 18121.8 12929.9 18107.2C12949.4 18092.5 12966 18085.2 12979.7 18085.2ZM13219.9 17956.3C13223.8 17871.3 13238 17790.3 13262.4 17713.1C13286.8 17635 13319.5 17559.8 13360.6 17487.6C13401.6 17414.3 13449.4 17345.5 13504.1 17281C13559.8 17215.6 13619.8 17158.5 13684.3 17109.6C13823.9 17005.1 13965.1 16952.9 14107.6 16952.9C14274.6 16952.9 14385.9 17021.7 14441.6 17159.4C14461.1 17206.3 14470.4 17262 14469.4 17326.4C14468.5 17389.9 14456.3 17449 14432.8 17503.7C14409.4 17557.4 14376.7 17606.7 14334.7 17651.6C14293.7 17695.6 14244.3 17735.1 14186.7 17770.3C14130.1 17805.4 14068.1 17835.2 14000.7 17859.6C13862 17908.5 13713.6 17933.8 13555.4 17935.8C13551.5 17949.5 13549 17970 13548.1 17997.3C13547.1 18024.7 13550 18055.4 13556.8 18089.6C13563.7 18122.8 13575.4 18152.6 13592 18179C13627.2 18237.6 13677.9 18266.9 13744.3 18266.9C13857.6 18266.9 13968 18233.6 14075.4 18167.2C14113.5 18144.8 14144.2 18121.8 14167.7 18098.4C14192.1 18074 14213.1 18061.8 14230.7 18061.8C14248.3 18061.8 14263.4 18072.5 14276.1 18094C14289.8 18114.5 14296.6 18137.9 14296.6 18164.3C14296.6 18216.1 14281.9 18261 14252.6 18299.1C14129.6 18422.1 13946.5 18483.6 13703.3 18483.6C13559.8 18483.6 13444.5 18440.7 13357.6 18354.7C13260 18257.1 13214.1 18124.3 13219.9 17956.3ZM14075.4 17147.7C13972.9 17147.7 13874.2 17218 13779.5 17358.6C13699.4 17479.7 13635 17623.3 13586.1 17789.3C13749.2 17772.7 13890.8 17708.3 14010.9 17596C14121.3 17490.5 14176.5 17389.4 14176.5 17292.7C14176.5 17196.1 14142.8 17147.7 14075.4 17147.7Z" fill="#E8D0B3"/>
<rect x="16778" width="447" height="7140" fill="#8C4D3F"/>
</svg>
