<svg width="32768" height="16235" viewBox="0 0 32768 16235" fill="none" xmlns="http://www.w3.org/2000/svg">
<path d="M1175.27 4447.49C2053.64 4752.65 2711.38 4958.83 3148.5 5066.05C3589.74 5177.39 3967.07 5233.07 4280.47 5233.07C4598 5233.07 4946.46 5160.9 5325.85 5016.57L5356.78 5066.05C4853.68 5412.45 4346.45 5585.65 3835.11 5585.65C3311.39 5585.65 2715.5 5422.76 2047.45 5096.98C1531.98 4841.31 1212.39 4686.67 1088.68 4633.06C647.432 4435.12 284.54 4334.08 1.47478e-05 4329.96V4268.1H80.4136C187.632 4268.1 278.355 4230.99 352.582 4156.76C430.934 4082.53 472.172 3989.75 476.296 3878.41V451.553C472.172 344.335 430.934 253.612 352.582 179.384C278.355 101.032 187.632 61.8562 80.4136 61.8562H1.47478e-05V-0.000294955H1354.66V61.8562H1274.25C1167.03 61.8562 1074.24 101.032 995.891 179.384C917.539 253.612 878.363 344.335 878.363 451.553V4020.68C878.363 4094.9 882.487 4152.64 890.735 4193.88C898.982 4230.99 925.787 4274.29 971.148 4323.77C1016.51 4373.26 1084.55 4414.5 1175.27 4447.49ZM5817.82 2958.81C5639.12 3192.49 5549.77 3445.07 5549.77 3716.55C5549.77 4039.58 5685.52 4290.44 5957 4469.14C6115.07 4575.67 6293.77 4628.93 6493.09 4628.93C6695.84 4628.93 6871.1 4589.41 7018.87 4510.37C7297.22 4366.04 7453.58 4123.77 7487.95 3783.56C7491.38 3759.5 7493.1 3735.45 7493.1 3711.39C7493.1 3584.24 7457.02 3446.79 7384.85 3299.02C7316.12 3151.25 7202.72 3015.51 7044.64 2891.79L6116.79 2159.82C5914.04 2001.75 5812.66 1797.28 5812.66 1546.41C5812.66 1295.55 5893.42 1084.21 6054.94 912.384C6216.45 737.124 6434.67 649.494 6709.58 649.494C6847.04 649.494 6996.53 666.676 7158.05 701.041H7364.23L7374.54 1335.07H7323C7319.56 1170.12 7259.42 1041.25 7142.58 948.467C7029.18 852.246 6884.85 804.135 6709.58 804.135C6537.76 804.135 6393.43 862.555 6276.59 979.395C6159.75 1092.8 6101.33 1240.57 6101.33 1422.7C6101.33 1601.4 6176.93 1750.88 6328.14 1871.16L7281.76 2623.75C7659.77 2922.72 7848.78 3283.55 7848.78 3706.24C7848.78 4022.39 7723.35 4293.88 7472.48 4520.68C7255.98 4716.56 6967.32 4814.5 6606.49 4814.5C6386.56 4814.5 6190.68 4773.26 6018.85 4690.79C5695.82 4539.58 5501.66 4281.85 5436.37 3917.58C5426.06 3862.6 5420.91 3793.87 5420.91 3711.39C5420.91 3625.48 5444.96 3510.36 5493.07 3366.03C5541.18 3218.26 5633.97 3070.49 5771.43 2922.72L5817.82 2958.81Z" fill="#D7CCC8"/>
<path d="M4453.16 7985.68C4240.1 7731.38 4133.56 7480.52 4133.56 7233.09C4133.56 6978.8 4191.99 6762.3 4308.83 6583.6C4425.67 6398.03 4614.67 6243.39 4875.84 6119.68C5137.02 5989.09 5432.55 5923.8 5762.45 5923.8H9989.32C10202.4 5923.8 10436.1 5903.18 10690.4 5861.94C10951.5 5820.7 11133.7 5779.46 11236.8 5738.23V7037.21L11133.7 7026.91V6851.65C11133.7 6686.69 11075.2 6545.8 10958.4 6428.96C10841.6 6305.25 10704.1 6239.95 10546 6233.08H8587.24V12408.4C8594.11 12655.9 8704.08 12841.4 8917.14 12965.1C9020.23 13020.1 9130.2 13047.6 9247.04 13047.6H9381.06V13150.7H7123.3V13047.6H7257.32C7436.02 13047.6 7587.22 12985.8 7710.94 12862C7841.52 12738.3 7910.25 12590.6 7917.13 12418.7V6233.08H5762.45C5212.62 6233.08 4813.99 6408.34 4566.56 6758.86C4435.97 6937.56 4370.68 7126.56 4370.68 7325.88C4370.68 7518.32 4425.67 7721.07 4535.63 7934.14L4453.16 7985.68ZM19329.3 8882.6C19226.2 8882.6 19137.5 8919.72 19063.3 8993.94C18989.1 9064.05 18949.9 9150.65 18945.8 9253.74V12445.5C18945.8 12684.7 18960.2 12911.5 18989.1 13126L19001.5 13237.3H18945.8L15574.6 9637.25V12717.7C15574.6 12820.8 15611.7 12909.5 15685.9 12983.7C15760.2 13053.8 15848.8 13088.8 15951.9 13088.8H16069.4V13150.7H14795.2V13088.8H14912.7C15015.8 13088.8 15104.5 13053.8 15178.7 12983.7C15252.9 12909.5 15290.1 12818.7 15290.1 12711.5V9501.17C15290.1 9249.62 15275.6 9024.87 15246.8 8826.93L15234.4 8727.96H15296.2L18667.4 12328V9259.93C18663.3 9152.71 18624.1 9064.05 18549.9 8993.94C18475.7 8919.72 18387 8882.6 18283.9 8882.6H18166.4V8820.75H19440.6V8882.6H19329.3ZM20109 13088.8C20216.2 13088.8 20307 13051.7 20381.2 12977.5C20459.5 12899.2 20500.8 12806.4 20504.9 12699.2V9235.19C20504.9 9136.21 20465.7 9053.74 20387.4 8987.76C20309 8917.65 20216.2 8882.6 20109 8882.6H20034.8L20028.6 8820.75H21284.3C21412.1 8820.75 21550.3 8808.37 21698.7 8783.63C21851.3 8758.89 21958.5 8734.15 22020.4 8709.4V9488.8H21958.5V9377.46C21958.5 9278.48 21923.5 9193.95 21853.4 9123.84C21787.4 9053.74 21707 9016.63 21612.1 9012.5H20907V10923.9H22082.2C22164.7 10919.7 22234.8 10888.8 22292.6 10831.1C22350.3 10773.4 22379.2 10701.2 22379.2 10614.6V10528H22441V11505.3H22379.2V11412.5C22379.2 11330.1 22350.3 11260 22292.6 11202.2C22238.9 11144.5 22170.9 11113.6 22088.4 11109.4H20907V12959H22224.5C22529.7 12959 22762.7 12890.9 22923.5 12754.8C23084.3 12618.7 23218.3 12416.7 23325.6 12148.6H23387.4L23028.7 13150.7H20028.6V13088.8H20109ZM24900.8 13268.2C25779.1 13573.4 26436.9 13779.6 26874 13886.8C27315.2 13998.1 27692.6 14053.8 28006 14053.8C28323.5 14053.8 28672 13981.6 29051.4 13837.3L29082.3 13886.8C28579.2 14233.2 28072 14406.4 27560.6 14406.4C27036.9 14406.4 26441 14243.5 25773 13917.7C25257.5 13662.1 24937.9 13507.4 24814.2 13453.8C24372.9 13255.9 24010 13154.8 23725.5 13150.7V13088.8H23805.9C23913.1 13088.8 24003.9 13051.7 24078.1 12977.5C24156.4 12903.3 24197.7 12810.5 24201.8 12699.2V9272.3C24197.7 9165.08 24156.4 9074.36 24078.1 9000.13C24003.9 8921.78 23913.1 8882.6 23805.9 8882.6H23725.5V8820.75H25080.2V8882.6H24999.7C24892.5 8882.6 24799.7 8921.78 24721.4 9000.13C24643 9074.36 24603.9 9165.08 24603.9 9272.3V12841.4C24603.9 12915.7 24608 12973.4 24616.2 13014.6C24624.5 13051.7 24651.3 13095 24696.7 13144.5C24742 13194 24810.1 13235.2 24900.8 13268.2ZM26288.6 13088.8C26395.9 13088.8 26486.6 13051.7 26560.8 12977.5C26639.2 12899.2 26680.4 12806.4 26684.5 12699.2V9235.19C26684.5 9136.21 26645.3 9053.74 26567 8987.76C26488.6 8917.65 26395.9 8882.6 26288.6 8882.6H26214.4L26208.2 8820.75H27463.9C27591.7 8820.75 27729.9 8808.37 27878.4 8783.63C28030.9 8758.89 28138.1 8734.15 28200 8709.4V9488.8H28138.1V9377.46C28138.1 9278.48 28103.1 9193.95 28033 9123.84C27967 9053.74 27886.6 9016.63 27791.8 9012.5H27086.6V10923.9H28261.9C28344.3 10919.7 28414.4 10888.8 28472.2 10831.1C28529.9 10773.4 28558.8 10701.2 28558.8 10614.6V10528H28620.6V11505.3H28558.8V11412.5C28558.8 11330.1 28529.9 11260 28472.2 11202.2C28418.6 11144.5 28350.5 11113.6 28268 11109.4H27086.6V12959H28404.1C28709.3 12959 28942.3 12890.9 29103.1 12754.8C29263.9 12618.7 29398 12416.7 29505.2 12148.6H29567L29208.3 13150.7H26208.2V13088.8H26288.6ZM30330.5 11505.3C30116 11785.7 30008.8 12088.8 30008.8 12414.6C30008.8 12802.2 30171.7 13103.3 30497.5 13317.7C30687.2 13445.6 30901.6 13509.5 31140.8 13509.5C31384.1 13509.5 31594.4 13462.1 31771.7 13367.2C32105.8 13194 32293.4 12903.3 32334.6 12495C32338.8 12466.2 32340.8 12437.3 32340.8 12408.4C32340.8 12255.8 32297.5 12090.9 32210.9 11913.6C32128.4 11736.3 31992.4 11573.4 31802.7 11424.9L30689.2 10546.5C30445.9 10356.9 30324.3 10111.5 30324.3 9810.45C30324.3 9509.42 30421.2 9255.8 30615 9049.62C30808.8 8839.3 31070.7 8734.15 31400.6 8734.15C31565.6 8734.15 31744.9 8754.77 31938.8 8796H32186.2L32198.5 9556.84H32136.7C32132.6 9358.9 32060.4 9204.26 31920.2 9092.91C31784.1 8977.45 31610.9 8919.72 31400.6 8919.72C31194.4 8919.72 31021.2 8989.82 30881 9130.03C30740.8 9266.11 30670.7 9443.44 30670.7 9662C30670.7 9876.43 30761.4 10055.8 30942.9 10200.1L32087.2 11103.3C32540.8 11462 32767.6 11895 32767.6 12402.2C32767.6 12781.6 32617.1 13107.4 32316.1 13379.6C32056.3 13614.6 31709.9 13732.2 31276.9 13732.2C31013 13732.2 30777.9 13682.7 30571.7 13583.7C30184.1 13402.3 29951.1 13093 29872.7 12655.9C29860.4 12589.9 29854.2 12507.4 29854.2 12408.4C29854.2 12305.3 29883.1 12167.2 29940.8 11994C29998.5 11816.7 30109.9 11639.3 30274.8 11462L30330.5 11505.3Z" fill="#D7CCC8"/>
<path d="M10394.4 7899.49C10073.9 8175.09 9868.29 8591.44 9777.71 9148.51C9728.94 9388.94 9704.56 9682.15 9704.56 10028.1C9704.56 10960.5 9871.79 11634.8 10206.2 12051.2C10547.7 12467.5 11115.5 12675.7 11909.8 12675.7C12711.1 12675.7 13279 12470.5 13613.4 12060C13954.8 11643.6 14125.6 10969.3 14125.6 10036.9C14125.6 9362.56 14031.5 8831.86 13843.3 8444.84C13613.4 7999.18 13265 7705.96 12798.2 7565.24C12554.3 7489.01 12258.2 7450.89 11909.8 7450.89C11240.9 7450.89 10735.8 7600.42 10394.4 7899.49ZM14083.8 7670.78C14613.3 8163.38 14878.1 8949.13 14878.1 10028.1C14878.1 11101.2 14630.7 11889.9 14136 12394.2C13641.3 12898.5 12899.2 13150.7 11909.8 13150.7C10955.3 13150.7 10230.6 12913.2 9735.91 12438.2C9220.3 11951.5 8962.5 11151.1 8962.5 10036.9C8962.5 8952.07 9223.8 8163.38 9746.37 7670.78C10241.1 7201.67 10962.2 6967.11 11909.8 6967.11C12850.5 6967.11 13575.1 7201.67 14083.8 7670.78Z" fill="#5D4037"/>
<path d="M2611.56 1467.53C2437.18 1617.76 2325.33 1844.71 2276.05 2148.37C2249.52 2279.43 2236.25 2439.26 2236.25 2627.85C2236.25 3136.08 2327.24 3503.67 2509.21 3730.62C2694.97 3957.56 3003.94 4071.04 3436.11 4071.04C3872.09 4071.04 4181.06 3959.17 4363.03 3735.41C4548.79 3508.47 4641.68 3140.88 4641.68 2632.63C4641.68 2265.05 4590.5 1975.76 4488.13 1764.8C4363.03 1521.87 4173.48 1362.04 3919.48 1285.33C3786.79 1243.78 3625.68 1223 3436.11 1223C3072.18 1223 2797.32 1304.51 2611.56 1467.53ZM4618.93 1342.86C4907.05 1611.37 5051.1 2039.69 5051.1 2627.85C5051.1 3212.8 4916.53 3642.72 4647.36 3917.62C4378.2 4192.5 3974.45 4329.96 3436.11 4329.96C2916.74 4329.96 2522.48 4200.49 2253.3 3941.59C1972.77 3676.27 1832.5 3239.97 1832.5 2632.63C1832.5 2041.29 1974.67 1611.37 2259 1342.86C2528.17 1087.15 2920.53 959.292 3436.11 959.292C3947.92 959.292 4342.19 1087.15 4618.93 1342.86Z" fill="#402525"/>
<path d="M13.9177 16208.5V16100.2H47.4234C86.9428 16100.2 122.167 16095.9 153.095 16087.3C185.742 16078.8 211.515 16061.6 230.416 16035.8C249.316 16008.3 258.767 15967.9 258.767 15914.7V14651.8C258.767 14600.2 248.457 14562.4 227.838 14538.4C208.938 14512.6 183.164 14496.3 150.518 14489.4C119.589 14480.8 85.2246 14476.5 47.4234 14476.5H13.9177V14368.2H763.929V14476.5H730.423C692.622 14476.5 657.398 14480.8 624.751 14489.4C592.105 14498 566.331 14515.2 547.431 14540.9C528.53 14566.7 519.08 14607.1 519.08 14662.1V15182.7H1356.72V14662.1C1356.72 14607.1 1347.27 14566.7 1328.37 14540.9C1309.47 14515.2 1283.7 14498 1251.05 14489.4C1220.12 14480.8 1184.9 14476.5 1145.38 14476.5H1111.87V14368.2H1861.88V14476.5H1828.38C1790.58 14476.5 1755.35 14480.8 1722.71 14489.4C1690.06 14498 1664.29 14515.2 1645.38 14540.9C1626.48 14566.7 1617.03 14607.1 1617.03 14662.1V15927.6C1617.03 15977.4 1626.48 16015.2 1645.38 16041C1666 16065 1691.78 16081.3 1722.71 16089.9C1755.35 16096.8 1790.58 16100.2 1828.38 16100.2H1861.88V16208.5H1111.87V16100.2H1145.38C1184.9 16100.2 1220.12 16095.9 1251.05 16087.3C1283.7 16078.8 1309.47 16061.6 1328.37 16035.8C1347.27 16008.3 1356.72 15967.9 1356.72 15914.7V15311.6H519.08V15914.7C519.08 15967.9 528.53 16008.3 547.431 16035.8C566.331 16061.6 592.105 16078.8 624.751 16087.3C657.398 16095.9 692.622 16100.2 730.423 16100.2H763.929V16208.5H13.9177ZM2915.94 16234.3C2733.81 16234.3 2582.6 16194.7 2462.33 16115.7C2342.05 16036.7 2251.84 15925.8 2191.7 15783.2C2133.28 15640.6 2104.07 15473.9 2104.07 15283.2C2104.07 15092.5 2133.28 14926.7 2191.7 14785.8C2251.84 14644.9 2342.05 14535.8 2462.33 14458.5C2584.32 14379.4 2736.39 14339.9 2918.52 14339.9C3092.06 14339.9 3238.11 14379.4 3356.67 14458.5C3476.95 14535.8 3568.01 14645.7 3629.87 14788.4C3693.44 14929.3 3725.23 15095.1 3725.23 15285.8C3725.23 15476.5 3693.44 15643.2 3629.87 15785.8C3568.01 15926.7 3476.95 16036.7 3356.67 16115.7C3236.39 16194.7 3089.48 16234.3 2915.94 16234.3ZM2915.94 16095.1C3012.16 16095.1 3092.92 16077 3158.21 16041C3225.22 16004.9 3279.35 15952.5 3320.59 15883.7C3361.82 15813.3 3391.89 15728.2 3410.79 15628.6C3429.69 15527.2 3439.14 15412.9 3439.14 15285.8C3439.14 15158.6 3429.69 15045.2 3410.79 14945.6C3391.89 14845.9 3361.82 14761.7 3320.59 14693C3281.07 14622.5 3227.8 14569.3 3160.79 14533.2C3095.5 14497.1 3014.74 14479.1 2918.52 14479.1C2822.3 14479.1 2740.68 14497.1 2673.67 14533.2C2606.66 14569.3 2551.67 14622.5 2508.72 14693C2467.48 14761.7 2437.41 14845.9 2418.51 14945.6C2399.61 15045.2 2390.16 15158.6 2390.16 15285.8C2390.16 15412.9 2399.61 15527.2 2418.51 15628.6C2437.41 15728.2 2467.48 15813.3 2508.72 15883.7C2551.67 15952.5 2606.66 16004.9 2673.67 16041C2740.68 16077 2821.44 16095.1 2915.94 16095.1ZM4208.89 16208.5V16100.2H4268.17C4305.97 16100.2 4340.33 16096.8 4371.26 16089.9C4403.91 16081.3 4429.68 16065 4448.58 16041C4469.2 16015.2 4479.51 15977.4 4479.51 15927.6V14497.1H4232.08C4182.26 14497.1 4142.74 14507.4 4113.53 14528C4084.32 14546.9 4062.84 14572.7 4049.09 14605.4C4035.35 14636.3 4025.9 14670.7 4020.74 14708.5L4007.85 14819.3H3873.83L3886.72 14368.2H5337.77L5350.66 14819.3H5216.63L5203.75 14708.5C5200.31 14670.7 5190.86 14636.3 5175.4 14605.4C5161.65 14572.7 5140.17 14546.9 5110.96 14528C5081.75 14507.4 5041.37 14497.1 4989.83 14497.1H4739.82V15914.7C4739.82 15967.9 4749.27 16008.3 4768.17 16035.8C4787.08 16061.6 4812.85 16078.8 4845.5 16087.3C4878.14 16095.9 4913.37 16100.2 4951.17 16100.2H5010.45V16208.5H4208.89ZM5500.87 16208.5V16100.2H5534.37C5572.18 16100.2 5606.54 16096.8 5637.47 16089.9C5670.12 16081.3 5695.89 16065 5714.79 16041C5735.41 16015.2 5745.72 15977.4 5745.72 15927.6V14662.1C5745.72 14607.1 5736.27 14566.7 5717.37 14540.9C5698.47 14515.2 5672.69 14498 5640.05 14489.4C5609.12 14480.8 5573.89 14476.5 5534.37 14476.5H5500.87V14368.2H6799.86L6812.74 14819.3H6678.72L6665.83 14708.5C6662.4 14670.7 6652.09 14636.3 6634.91 14605.4C6619.44 14572.7 6595.39 14546.9 6562.74 14528C6531.81 14507.4 6490.57 14497.1 6439.03 14497.1H6006.03V15182.7H6627.17V15309H6006.03V16079.6H6503.46C6558.44 16079.6 6602.26 16070.2 6634.91 16051.3C6669.27 16030.6 6695.04 16004.9 6712.23 15973.9C6731.13 15941.3 6743.16 15906.1 6748.31 15868.3L6766.35 15757.4H6900.37L6882.33 16208.5H5500.87ZM7106.68 16208.5V16100.2H7140.19C7179.71 16100.2 7214.93 16095.9 7245.86 16087.3C7278.51 16078.8 7304.28 16061.6 7323.18 16035.8C7342.08 16008.3 7351.53 15967.9 7351.53 15914.7V14662.1C7351.53 14607.1 7342.08 14566.7 7323.18 14540.9C7304.28 14515.2 7278.51 14498 7245.86 14489.4C7214.93 14480.8 7179.71 14476.5 7140.19 14476.5H7106.68V14368.2H7856.69V14476.5H7823.19C7785.39 14476.5 7750.16 14480.8 7717.52 14489.4C7686.59 14496.3 7660.81 14512.6 7640.2 14538.4C7621.3 14562.4 7611.85 14600.2 7611.85 14651.8V16079.6H8119.58C8171.13 16079.6 8212.37 16068.4 8243.3 16046.1C8275.94 16022.1 8300 15992 8315.46 15955.9C8330.93 15919.8 8341.24 15883.7 8346.39 15847.7L8372.17 15654.4H8506.19L8488.15 16208.5H7106.68ZM9382.01 16208.5V16100.2H9415.51C9455.03 16100.2 9490.25 16095.9 9521.18 16087.3C9553.83 16078.8 9579.6 16061.6 9598.5 16035.8C9617.4 16008.3 9626.85 15967.9 9626.85 15914.7V14651.8C9626.85 14600.2 9616.55 14562.4 9595.93 14538.4C9577.03 14512.6 9551.25 14496.3 9518.61 14489.4C9487.68 14480.8 9453.31 14476.5 9415.51 14476.5H9382.01V14368.2H10170.7C10347.7 14368.2 10498.9 14404.3 10624.3 14476.5C10749.7 14546.9 10845.1 14650.9 10910.4 14788.4C10977.4 14924.1 11010.9 15089.9 11010.9 15285.8C11010.9 15473.1 10979.1 15636.3 10915.5 15775.5C10853.7 15912.9 10760.9 16019.5 10637.2 16095.1C10513.5 16170.7 10358 16208.5 10170.7 16208.5H9382.01ZM10111.4 16077C10248.9 16077 10362.3 16047 10451.6 15986.8C10542.7 15925 10610.5 15835.6 10655.2 15718.8C10701.6 15600.2 10724.8 15455.9 10724.8 15285.8C10724.8 15115.7 10701.6 14972.2 10655.2 14855.4C10610.5 14738.5 10542.7 14650 10451.6 14589.9C10362.3 14528 10249.7 14497.1 10114 14497.1H9887.17V16077H10111.4ZM11254.6 16208.5V16100.2H11288.1C11325.9 16100.2 11360.3 16096.8 11391.2 16089.9C11423.9 16081.3 11449.6 16065 11468.5 16041C11489.2 16015.2 11499.5 15977.4 11499.5 15927.6V14662.1C11499.5 14607.1 11490 14566.7 11471.1 14540.9C11452.2 14515.2 11426.4 14498 11393.8 14489.4C11362.9 14480.8 11327.6 14476.5 11288.1 14476.5H11254.6V14368.2H12553.6L12566.5 14819.3H12432.5L12419.6 14708.5C12416.1 14670.7 12405.8 14636.3 12388.7 14605.4C12373.2 14572.7 12349.1 14546.9 12316.5 14528C12285.6 14507.4 12244.3 14497.1 12192.8 14497.1H11759.8V15182.7H12380.9V15309H11759.8V16079.6H12257.2C12312.2 16079.6 12356 16070.2 12388.7 16051.3C12423 16030.6 12448.8 16004.9 12466 15973.9C12484.9 15941.3 12496.9 15906.1 12502.1 15868.3L12520.1 15757.4H12654.1L12636.1 16208.5H11254.6ZM14362.4 16234.3C14192.3 16234.3 14048.8 16194.7 13932 16115.7C13815.2 16036.7 13726.7 15926.7 13666.5 15785.8C13608.1 15643.2 13578.9 15476.5 13578.9 15285.8C13578.9 15100.2 13609.8 14937 13671.7 14796.1C13735.3 14653.5 13828.1 14542.7 13950 14463.6C14073.8 14382.9 14225.8 14342.5 14406.2 14342.5C14523.1 14342.5 14620.2 14355.4 14697.5 14381.1C14774.8 14405.2 14832.4 14439.6 14870.2 14484.2C14908 14527.2 14926.9 14576.2 14926.9 14631.1C14926.9 14686.1 14905.4 14729.9 14862.4 14762.6C14819.5 14795.2 14766.2 14811.6 14702.6 14811.6C14702.6 14758.3 14693.2 14706.7 14674.3 14656.9C14655.4 14605.4 14623.6 14563.3 14578.9 14530.6C14536 14496.3 14476.7 14479.1 14401.1 14479.1C14272.2 14479.1 14168.3 14510.9 14089.2 14574.4C14010.2 14636.3 13952.6 14727.4 13916.5 14847.6C13882.2 14967.9 13865 15114 13865 15285.8C13865 15438.7 13883 15574.5 13919.1 15693C13956.9 15809.9 14015.3 15900.9 14094.4 15966.2C14173.4 16031.5 14275.7 16064.2 14401.1 16064.2C14485.3 16064.2 14556.6 16053.8 14615 16033.2C14673.4 16012.6 14722.4 15986 14761.9 15953.3C14803.2 15919 14838.4 15882.9 14867.6 15845.1C14881.3 15853.7 14892.5 15866.6 14901.1 15883.7C14911.4 15899.2 14916.6 15919.8 14916.6 15945.6C14916.6 15978.2 14905.4 16011.7 14883.1 16046.1C14860.7 16078.8 14827.2 16109.7 14782.5 16138.9C14737.9 16166.4 14680.3 16189.6 14609.9 16208.5C14541.1 16225.7 14458.6 16234.3 14362.4 16234.3ZM15015.2 16208.5V16100.2H15064.1C15098.5 16100.2 15126 16095.1 15146.6 16084.8C15167.2 16074.5 15186.1 16054.7 15203.3 16025.5C15220.5 15996.3 15239.4 15954.2 15260 15899.2L15832.2 14368.2H16033.2L16615.7 15963.6C16629.4 15999.7 16644.1 16028.1 16659.5 16048.7C16675 16067.6 16693.9 16081.3 16716.2 16089.9C16738.6 16096.8 16766 16100.2 16798.7 16100.2H16832.2V16208.5H16123.4V16100.2H16182.7C16234.3 16100.2 16272.9 16090.8 16298.7 16071.9C16324.5 16051.3 16337.3 16019.5 16337.3 15976.5C16337.3 15966.2 16336.5 15956.8 16334.8 15948.2C16333.1 15937.9 16330.5 15927.6 16327 15917.2C16325.3 15905.2 16321.9 15893.2 16316.7 15881.2L16213.6 15592.5H15535.8L15437.8 15863.1C15432.7 15876.9 15428.4 15890.6 15425 15904.4C15421.5 15918.1 15418.9 15931 15417.2 15943C15415.5 15953.3 15414.7 15963.6 15414.7 15973.9C15414.7 16016.9 15428.4 16048.7 15455.9 16069.3C15485.1 16089.9 15528.1 16100.2 15584.8 16100.2H15644V16208.5H15015.2ZM15584.8 15463.6H16167.2L16007.4 15012.6C15990.3 14961 15973.1 14912.1 15955.9 14865.7C15940.4 14819.3 15925.8 14774.6 15912.1 14731.7C15900.1 14688.7 15888.9 14646.6 15878.6 14605.4C15871.7 14636.3 15864 14666.4 15855.4 14695.6C15848.5 14724.8 15839.9 14754.9 15829.6 14785.8C15821 14815 15810.7 14846.8 15798.7 14881.1C15788.4 14913.8 15775.5 14949.9 15760 14989.4L15584.8 15463.6ZM16930.3 16208.5V16100.2H16963.8C17001.6 16100.2 17036 16096.8 17066.9 16089.9C17099.6 16081.3 17125.4 16065 17144.3 16041C17164.9 16015.2 17175.2 15977.4 17175.2 15927.6V14651.8C17175.2 14600.2 17164.9 14562.4 17144.3 14538.4C17125.4 14512.6 17099.6 14496.3 17066.9 14489.4C17036 14480.8 17001.6 14476.5 16963.8 14476.5H16930.3V14368.2H18229.3L18242.2 14819.3H18108.2L18095.3 14708.5C18091.9 14668.9 18081.6 14633.7 18064.4 14602.8C18047.2 14570.1 18022.3 14544.4 17989.6 14525.5C17957 14506.6 17913.2 14497.1 17858.2 14497.1H17435.5V15242H18056.6V15368.3H17435.5V15914.7C17435.5 15967.9 17445 16008.3 17463.9 16035.8C17482.8 16061.6 17508.5 16078.8 17541.2 16087.3C17573.8 16095.9 17609 16100.2 17646.8 16100.2H17731.9V16208.5H16930.3ZM18171.4 16208.5V16100.2H18220.4C18254.8 16100.2 18282.2 16095.1 18302.9 16084.8C18323.5 16074.5 18342.4 16054.7 18359.6 16025.5C18376.7 15996.3 18395.6 15954.2 18416.3 15899.2L18988.4 14368.2H19189.5L19772 15963.6C19785.7 15999.7 19800.3 16028.1 19815.8 16048.7C19831.2 16067.6 19850.1 16081.3 19872.5 16089.9C19894.8 16096.8 19922.3 16100.2 19954.9 16100.2H19988.5V16208.5H19279.7V16100.2H19339C19390.5 16100.2 19429.2 16090.8 19454.9 16071.9C19480.7 16051.3 19493.6 16019.5 19493.6 15976.5C19493.6 15966.2 19492.7 15956.8 19491 15948.2C19489.3 15937.9 19486.7 15927.6 19483.3 15917.2C19481.6 15905.2 19478.1 15893.2 19473 15881.2L19369.9 15592.5H18692L18594.1 15863.1C18588.9 15876.9 18584.7 15890.6 18581.2 15904.4C18577.8 15918.1 18575.2 15931 18573.5 15943C18571.8 15953.3 18570.9 15963.6 18570.9 15973.9C18570.9 16016.9 18584.7 16048.7 18612.1 16069.3C18641.4 16089.9 18684.3 16100.2 18741 16100.2H18800.3V16208.5H18171.4ZM18741 15463.6H19323.5L19163.7 15012.6C19146.5 14961 19129.3 14912.1 19112.2 14865.7C19096.7 14819.3 19082.1 14774.6 19068.3 14731.7C19056.3 14688.7 19045.1 14646.6 19034.8 14605.4C19028 14636.3 19020.2 14666.4 19011.6 14695.6C19004.8 14724.8 18996.2 14754.9 18985.9 14785.8C18977.3 14815 18967 14846.8 18954.9 14881.1C18944.6 14913.8 18931.7 14949.9 18916.3 14989.4L18741 15463.6ZM20217.2 16208.5V16100.2H20276.5C20314.3 16100.2 20348.7 16096.8 20379.6 16089.9C20412.3 16081.3 20438 16065 20456.9 16041C20477.5 16015.2 20487.9 15977.4 20487.9 15927.6V15440.4L20011 14613.1C19992.1 14580.5 19974.1 14554.7 19956.9 14535.8C19941.5 14515.2 19923.4 14500.6 19902.8 14492C19882.2 14481.7 19857.3 14476.5 19828.1 14476.5H19794.5V14368.2H20503.3V14476.5H20408C20361.6 14476.5 20330.6 14485.1 20315.2 14502.3C20301.4 14517.7 20294.6 14536.6 20294.6 14559C20294.6 14583 20299.7 14607.1 20310 14631.1C20320.3 14655.2 20330.6 14676.7 20340.9 14695.6L20531.7 15040.9C20547.1 15066.7 20560.9 15093.3 20572.9 15120.8C20584.9 15146.6 20596.1 15172.4 20606.4 15198.2C20618.4 15222.2 20628.8 15246.3 20637.3 15270.3C20645.9 15292.7 20653.7 15314.1 20660.5 15334.8C20676 15298.7 20698.3 15254 20727.6 15200.7C20756.8 15147.5 20786 15094.2 20815.2 15040.9L20980.1 14744.5C20997.3 14715.3 21009.3 14687.8 21016.2 14662.1C21023.1 14634.6 21026.5 14610.5 21026.5 14589.9C21026.5 14552.1 21012.8 14523.7 20985.3 14504.8C20959.5 14485.9 20921.7 14476.5 20871.9 14476.5H20797.1V14368.2H21426V14476.5H21395.1C21371 14476.5 21347.8 14482.5 21325.5 14494.5C21304.9 14506.6 21282.5 14527.2 21258.5 14556.4C21236.1 14585.6 21210.4 14626 21181.2 14677.5L20748.2 15440.4V15914.7C20748.2 15967.9 20757.6 16008.3 20776.5 16035.8C20795.4 16061.6 20821.2 16078.8 20853.8 16087.3C20886.5 16095.9 20921.7 16100.2 20959.5 16100.2H21018.8V16208.5H20217.2ZM21237.1 16208.5V16100.2H21286C21320.4 16100.2 21347.9 16095.1 21368.5 16084.8C21389.1 16074.5 21408 16054.7 21425.2 16025.5C21442.4 15996.3 21461.3 15954.2 21481.9 15899.2L22054.1 14368.2H22255.1L22837.6 15963.6C22851.3 15999.7 22866 16028.1 22881.4 16048.7C22896.9 16067.6 22915.8 16081.3 22938.1 16089.9C22960.5 16096.8 22987.9 16100.2 23020.6 16100.2H23054.1V16208.5H22345.3V16100.2H22404.6C22456.2 16100.2 22494.8 16090.8 22520.6 16071.9C22546.4 16051.3 22559.2 16019.5 22559.2 15976.5C22559.2 15966.2 22558.4 15956.8 22556.7 15948.2C22555 15937.9 22552.4 15927.6 22548.9 15917.2C22547.2 15905.2 22543.8 15893.2 22538.6 15881.2L22435.5 15592.5H21757.7L21659.7 15863.1C21654.6 15876.9 21650.3 15890.6 21646.9 15904.4C21643.4 15918.1 21640.8 15931 21639.1 15943C21637.4 15953.3 21636.6 15963.6 21636.6 15973.9C21636.6 16016.9 21650.3 16048.7 21677.8 16069.3C21707 16089.9 21750 16100.2 21806.7 16100.2H21865.9V16208.5H21237.1ZM21806.7 15463.6H22389.1L22229.3 15012.6C22212.2 14961 22195 14912.1 22177.8 14865.7C22162.3 14819.3 22147.7 14774.6 22134 14731.7C22122 14688.7 22110.8 14646.6 22100.5 14605.4C22093.6 14636.3 22085.9 14666.4 22077.3 14695.6C22070.4 14724.8 22061.8 14754.9 22051.5 14785.8C22042.9 14815 22032.6 14846.8 22020.6 14881.1C22010.3 14913.8 21997.4 14949.9 21981.9 14989.4L21806.7 15463.6ZM23287.4 16208.5V16100.2H23346.6C23384.5 16100.2 23418.8 16096.8 23449.7 16089.9C23482.4 16081.3 23508.2 16065 23527.1 16041C23547.7 16015.2 23558 15977.4 23558 15927.6V14497.1H23310.6C23260.7 14497.1 23221.2 14507.4 23192 14528C23162.8 14546.9 23141.3 14572.7 23127.6 14605.4C23113.8 14636.3 23104.4 14670.7 23099.2 14708.5L23086.3 14819.3H22952.3L22965.2 14368.2H24416.3L24429.1 14819.3H24295.1L24282.2 14708.5C24278.8 14670.7 24269.3 14636.3 24253.9 14605.4C24240.1 14572.7 24218.7 14546.9 24189.4 14528C24160.2 14507.4 24119.9 14497.1 24068.3 14497.1H23818.3V15914.7C23818.3 15967.9 23827.8 16008.3 23846.7 16035.8C23865.6 16061.6 23891.3 16078.8 23924 16087.3C23956.6 16095.9 23991.8 16100.2 24029.6 16100.2H24088.9V16208.5H23287.4ZM24579.4 16208.5V16100.2H24612.9C24650.7 16100.2 24685 16096.8 24716 16089.9C24748.6 16081.3 24774.4 16065 24793.3 16041C24813.9 16015.2 24824.2 15977.4 24824.2 15927.6V14662.1C24824.2 14607.1 24814.7 14566.7 24795.8 14540.9C24776.9 14515.2 24751.2 14498 24718.5 14489.4C24687.6 14480.8 24652.4 14476.5 24612.9 14476.5H24579.4V14368.2H25878.3L25891.2 14819.3H25757.2L25744.3 14708.5C25740.9 14670.7 25730.6 14636.3 25713.4 14605.4C25697.9 14572.7 25673.9 14546.9 25641.2 14528C25610.3 14507.4 25569.1 14497.1 25517.5 14497.1H25084.5V15182.7H25705.7V15309H25084.5V16079.6H25581.9C25636.9 16079.6 25680.7 16070.2 25713.4 16051.3C25747.8 16030.6 25773.5 16004.9 25790.7 15973.9C25809.6 15941.3 25821.6 15906.1 25826.8 15868.3L25844.8 15757.4H25978.9L25960.8 16208.5H24579.4Z" fill="#D7CCC8"/>
</svg>
